<svg width="24 " height="24" viewBox="0 0 32 32" fill="none" xmlns="http://www.w3.org/2000/svg">
<path d="M18.6667 11.7334C18.6667 11.6 18.7112 11.4723 18.8 11.35C18.8889 11.2278 18.9889 11.1445 19.1 11.1C19.7667 10.8556 20.45 10.6667 21.15 10.5334C21.85 10.4 22.5778 10.3334 23.3334 10.3334C23.8223 10.3334 24.3 10.3612 24.7667 10.4167C25.2334 10.4723 25.6889 10.5556 26.1334 10.6667C26.2667 10.7112 26.3889 10.7945 26.5 10.9167C26.6112 11.0389 26.6667 11.1778 26.6667 11.3334C26.6667 11.5778 26.5834 11.7667 26.4167 11.9C26.25 12.0334 26.0445 12.0667 25.8 12C25.4223 11.8889 25.0278 11.8056 24.6167 11.75C24.2056 11.6945 23.7778 11.6667 23.3334 11.6667C22.6889 11.6667 22.0667 11.7278 21.4667 11.85C20.8667 11.9723 20.2778 12.1556 19.7 12.4C19.3889 12.5112 19.1389 12.5056 18.95 12.3834C18.7612 12.2612 18.6667 12.0445 18.6667 11.7334ZM18.6667 19.0667C18.6667 18.9334 18.7112 18.8 18.8 18.6667C18.8889 18.5334 18.9889 18.4445 19.1 18.4C19.7667 18.1556 20.45 17.9723 21.15 17.85C21.85 17.7278 22.5778 17.6667 23.3334 17.6667C23.8223 17.6667 24.3 17.6945 24.7667 17.75C25.2334 17.8056 25.6889 17.8889 26.1334 18C26.2667 18.0445 26.3889 18.1278 26.5 18.25C26.6112 18.3723 26.6667 18.5112 26.6667 18.6667C26.6667 18.9112 26.5834 19.1 26.4167 19.2334C26.25 19.3667 26.0445 19.4 25.8 19.3334C25.4223 19.2223 25.0278 19.1389 24.6167 19.0834C24.2056 19.0278 23.7778 19 23.3334 19C22.6889 19 22.0667 19.0556 21.4667 19.1667C20.8667 19.2778 20.2778 19.4556 19.7 19.7C19.3889 19.8112 19.1389 19.8112 18.95 19.7C18.7612 19.5889 18.6667 19.3778 18.6667 19.0667ZM18.6667 15.4C18.6667 15.2667 18.7112 15.1389 18.8 15.0167C18.8889 14.8945 18.9889 14.8112 19.1 14.7667C19.7667 14.5223 20.45 14.3334 21.15 14.2C21.85 14.0667 22.5778 14 23.3334 14C23.8223 14 24.3 14.0278 24.7667 14.0834C25.2334 14.1389 25.6889 14.2223 26.1334 14.3334C26.2667 14.3778 26.3889 14.4612 26.5 14.5834C26.6112 14.7056 26.6667 14.8445 26.6667 15C26.6667 15.2445 26.5834 15.4334 26.4167 15.5667C26.25 15.7 26.0445 15.7334 25.8 15.6667C25.4223 15.5556 25.0278 15.4723 24.6167 15.4167C24.2056 15.3612 23.7778 15.3334 23.3334 15.3334C22.6889 15.3334 22.0667 15.3945 21.4667 15.5167C20.8667 15.6389 20.2778 15.8223 19.7 16.0667C19.3889 16.1778 19.1389 16.1723 18.95 16.05C18.7612 15.9278 18.6667 15.7112 18.6667 15.4ZM8.26671 22C9.46671 22 10.6278 22.1389 11.75 22.4167C12.8723 22.6945 13.9778 23.1112 15.0667 23.6667V9.43337C14.0667 8.76671 12.9834 8.25004 11.8167 7.88337C10.65 7.51671 9.46671 7.33337 8.26671 7.33337C7.42226 7.33337 6.59449 7.43893 5.78337 7.65004C4.97226 7.86115 4.1556 8.12226 3.33337 8.43337V22.9C4.02226 22.5889 4.8056 22.3612 5.68337 22.2167C6.56115 22.0723 7.42226 22 8.26671 22ZM17.0667 23.6667C18.1778 23.1112 19.2667 22.6945 20.3334 22.4167C21.4 22.1389 22.5334 22 23.7334 22C24.5778 22 25.45 22.0667 26.35 22.2C27.25 22.3334 28.0223 22.5112 28.6667 22.7334V8.43337C27.9112 8.0556 27.1112 7.77782 26.2667 7.60004C25.4223 7.42226 24.5778 7.33337 23.7334 7.33337C22.5334 7.33337 21.3723 7.51671 20.25 7.88337C19.1278 8.25004 18.0667 8.76671 17.0667 9.43337V23.6667ZM16.0667 26.3C15.8889 26.3 15.7278 26.2834 15.5834 26.25C15.4389 26.2167 15.3112 26.1556 15.2 26.0667C14.1556 25.4223 13.0445 24.9223 11.8667 24.5667C10.6889 24.2112 9.48893 24.0334 8.26671 24.0334C7.44449 24.0334 6.64449 24.1334 5.86671 24.3334C5.08893 24.5334 4.31115 24.7778 3.53337 25.0667C3.02226 25.3112 2.52782 25.2778 2.05004 24.9667C1.57226 24.6556 1.33337 24.2112 1.33337 23.6334V8.20004C1.33337 7.86671 1.41115 7.56115 1.56671 7.28337C1.72226 7.0056 1.9556 6.78893 2.26671 6.63337C3.20004 6.18893 4.17226 5.86115 5.18337 5.65004C6.19449 5.43893 7.22226 5.33337 8.26671 5.33337C9.66671 5.33337 11.0278 5.52226 12.35 5.90004C13.6723 6.27782 14.9112 6.8556 16.0667 7.63337C17.2 6.8556 18.4167 6.27782 19.7167 5.90004C21.0167 5.52226 22.3556 5.33337 23.7334 5.33337C24.7778 5.33337 25.8 5.43893 26.8 5.65004C27.8 5.86115 28.7667 6.18893 29.7 6.63337C30.0112 6.78893 30.25 7.0056 30.4167 7.28337C30.5834 7.56115 30.6667 7.86671 30.6667 8.20004V23.6334C30.6667 24.2556 30.4167 24.7278 29.9167 25.05C29.4167 25.3723 28.9223 25.3778 28.4334 25.0667C27.6778 24.7556 26.9112 24.5056 26.1334 24.3167C25.3556 24.1278 24.5556 24.0334 23.7334 24.0334C22.5334 24.0334 21.3556 24.2112 20.2 24.5667C19.0445 24.9223 17.9556 25.4223 16.9334 26.0667C16.8223 26.1556 16.6945 26.2167 16.55 26.25C16.4056 26.2834 16.2445 26.3 16.0667 26.3Z" fill="url(#paint0_linear_13_333)"/>
<defs>
<linearGradient id="paint0_linear_13_333" x1="16" y1="5.33337" x2="16" y2="26.3" gradientUnits="userSpaceOnUse">
<stop stop-color="#A7EE6F"/>
<stop offset="1" stop-color="#24A21A"/>
</linearGradient>
</defs>
</svg>
