<svg width="24" height="24" viewBox="0 0 32 32" fill="none" xmlns="http://www.w3.org/2000/svg">
<path d="M15.8334 29.3333L21.8667 13.3333H24.6L30.8 29.3333H27.9L26.5334 25.1333H20.1334L18.5667 29.3333H15.8334ZM20.8667 22.8H25.6L23.2667 16.3333H23.2L20.8667 22.8ZM5.33337 25.3333L3.50004 23.5L10.3 16.7C9.4556 15.7222 8.7056 14.7388 8.05004 13.75C7.39448 12.7611 6.82226 11.7333 6.33337 10.6666H9.23337C9.61115 11.4 10.0278 12.0944 10.4834 12.75C10.9389 13.4055 11.4556 14.0777 12.0334 14.7666C13.0334 13.7222 13.8667 12.6388 14.5334 11.5166C15.2 10.3944 15.7667 9.22218 16.2334 7.99996H1.33337V5.33329H10.6667V2.66663H13.3334V5.33329H22.6667V7.99996H18.9C18.4112 9.53329 17.7612 11.0388 16.95 12.5166C16.1389 13.9944 15.1445 15.4 13.9667 16.7333L17.2334 20.0333L16.2334 22.7333L12 18.6666L5.33337 25.3333Z" fill="url(#paint0_linear_13_335)"/>
<defs>
<linearGradient id="paint0_linear_13_335" x1="16.0667" y1="2.66663" x2="16.0667" y2="29.3333" gradientUnits="userSpaceOnUse">
<stop stop-color="#A7EE6F"/>
<stop offset="1" stop-color="#24A21A"/>
</linearGradient>
</defs>
</svg>
