<svg width="246" height="37" viewBox="0 0 246 37" fill="none" xmlns="http://www.w3.org/2000/svg">
<path d="M27.296 36H20.144L17.936 28.56C17.488 27.024 17.04 25.84 16.592 25.008C16.144 24.144 15.536 23.488 14.768 23.04C14 22.592 12.976 22.368 11.696 22.368H6.84802V36H0.0800171V2.4H13.664C17.76 2.4 20.784 3.216 22.736 4.848C24.688 6.448 25.664 8.96 25.664 12.384C25.664 14.592 25.072 16.368 23.888 17.712C22.736 19.056 21.136 19.92 19.088 20.304C20.72 20.848 21.952 21.792 22.784 23.136C23.616 24.48 24.384 26.304 25.088 28.608L27.296 36ZM13.856 17.088C15.328 17.088 16.528 16.704 17.456 15.936C18.416 15.136 18.896 13.952 18.896 12.384C18.896 10.816 18.416 9.648 17.456 8.88C16.528 8.08 15.328 7.68 13.856 7.68H6.84802V17.088H13.856Z" fill="#141414"/>
<path d="M41.2468 36.576C37.9188 36.576 35.3588 35.808 33.5668 34.272C31.7748 32.736 30.8788 30.544 30.8788 27.696V21.744C30.8788 18.896 31.7748 16.704 33.5668 15.168C35.3588 13.632 37.9188 12.864 41.2468 12.864C44.5748 12.864 47.1348 13.632 48.9268 15.168C50.7188 16.704 51.6148 18.896 51.6148 21.744V27.696C51.6148 30.544 50.7188 32.736 48.9268 34.272C47.1348 35.808 44.5748 36.576 41.2468 36.576ZM41.2468 31.776C42.5588 31.776 43.5668 31.424 44.2708 30.72C45.0068 30.016 45.3748 29.008 45.3748 27.696V21.744C45.3748 20.432 45.0068 19.424 44.2708 18.72C43.5668 18.016 42.5588 17.664 41.2468 17.664C39.9348 17.664 38.9108 18.016 38.1748 18.72C37.4708 19.424 37.1188 20.432 37.1188 21.744V27.696C37.1188 29.008 37.4708 30.016 38.1748 30.72C38.9108 31.424 39.9348 31.776 41.2468 31.776Z" fill="#141414"/>
<path d="M70.0321 36.576C67.0241 36.576 64.7041 35.648 63.0721 33.792V36H56.8321V7.536C56.8321 6.672 56.6561 5.968 56.3041 5.424C55.9841 4.88 55.3921 4.288 54.5281 3.648L58.7041 0C60.3361 0.832001 61.4721 1.792 62.1121 2.88C62.7521 3.936 63.0721 5.424 63.0721 7.344V15.792C64.7361 13.84 67.0561 12.864 70.0321 12.864C72.1441 12.864 73.9361 13.376 75.4081 14.4C76.9121 15.392 78.0321 16.736 78.7681 18.432C79.5041 20.096 79.8721 21.936 79.8721 23.952V25.488C79.8721 27.504 79.5041 29.36 78.7681 31.056C78.0321 32.72 76.9121 34.064 75.4081 35.088C73.9361 36.08 72.1441 36.576 70.0321 36.576ZM68.2081 31.776C69.9681 31.776 71.3121 31.168 72.2401 29.952C73.1681 28.736 73.6321 27.248 73.6321 25.488V23.952C73.6321 22.192 73.1681 20.704 72.2401 19.488C71.3121 18.272 69.9681 17.664 68.2081 17.664C65.5201 17.664 63.8081 18.976 63.0721 21.6V27.84C63.8081 30.464 65.5201 31.776 68.2081 31.776Z" fill="#141414"/>
<path d="M94.3573 31.872C95.5413 31.872 96.5013 31.728 97.2373 31.44C97.9733 31.12 98.7733 30.576 99.6373 29.808L103.333 33.168C101.477 35.44 98.4853 36.576 94.3573 36.576C90.6773 36.576 88.0213 35.888 86.3893 34.512C84.7573 33.104 83.9413 30.832 83.9413 27.696V20.832C83.9413 18.368 84.8213 16.432 86.5813 15.024C88.3733 13.584 90.8053 12.864 93.8773 12.864C97.0453 12.864 99.5253 13.632 101.317 15.168C103.109 16.672 104.005 18.88 104.005 21.792C104.005 23.2 103.877 24.288 103.621 25.056C103.397 25.824 102.933 26.4 102.229 26.784C101.525 27.136 100.501 27.312 99.1573 27.312H90.1333V27.744C90.1333 30.496 91.5413 31.872 94.3573 31.872ZM93.8773 17.568C92.6933 17.568 91.7653 17.92 91.0933 18.624C90.4533 19.296 90.1333 20.192 90.1333 21.312V23.04H95.6053C96.4373 23.04 97.0133 22.912 97.3333 22.656C97.6533 22.4 97.8133 21.952 97.8133 21.312C97.8133 20.096 97.4773 19.168 96.8053 18.528C96.1333 17.888 95.1573 17.568 93.8773 17.568Z" fill="#141414"/>
<path d="M121.011 12.864C122.675 12.864 124.083 13.312 125.235 14.208L123.699 19.392C123.027 18.944 122.387 18.624 121.779 18.432C121.171 18.24 120.419 18.144 119.523 18.144C117.411 18.144 115.891 19.552 114.963 22.368V36H108.723V20.4C108.723 19.536 108.547 18.832 108.195 18.288C107.875 17.744 107.283 17.152 106.419 16.512L110.595 12.864C111.683 13.44 112.547 14.048 113.187 14.688C113.827 15.328 114.291 16.096 114.579 16.992C115.219 15.744 116.067 14.752 117.123 14.016C118.179 13.248 119.475 12.864 121.011 12.864Z" fill="#141414"/>
<path d="M134.035 18.24V27.552C134.035 28.896 134.243 29.84 134.659 30.384C135.075 30.928 135.779 31.2 136.771 31.2H140.563V36H136.771C134.531 36 132.755 35.728 131.443 35.184C130.163 34.64 129.235 33.76 128.659 32.544C128.083 31.328 127.795 29.664 127.795 27.552V9.936C127.795 9.072 127.619 8.368 127.267 7.824C126.947 7.28 126.355 6.688 125.491 6.048L129.667 2.4C131.299 3.232 132.435 4.192 133.075 5.28C133.715 6.336 134.035 7.824 134.035 9.744V13.44H140.563V18.24H134.035Z" fill="#141414"/>
<path d="M186.765 36H179.613L177.405 28.56C176.957 27.024 176.509 25.84 176.061 25.008C175.613 24.144 175.005 23.488 174.237 23.04C173.469 22.592 172.445 22.368 171.165 22.368H166.317V36H159.549V2.4H173.133C177.229 2.4 180.253 3.216 182.205 4.848C184.157 6.448 185.133 8.96 185.133 12.384C185.133 14.592 184.541 16.368 183.357 17.712C182.205 19.056 180.605 19.92 178.557 20.304C180.189 20.848 181.421 21.792 182.253 23.136C183.085 24.48 183.853 26.304 184.557 28.608L186.765 36ZM173.325 17.088C174.797 17.088 175.997 16.704 176.925 15.936C177.885 15.136 178.365 13.952 178.365 12.384C178.365 10.816 177.885 9.648 176.925 8.88C175.997 8.08 174.797 7.68 173.325 7.68H166.317V17.088H173.325Z" fill="#141414"/>
<path d="M200.764 31.872C201.948 31.872 202.908 31.728 203.644 31.44C204.38 31.12 205.18 30.576 206.044 29.808L209.74 33.168C207.884 35.44 204.892 36.576 200.764 36.576C197.084 36.576 194.428 35.888 192.796 34.512C191.164 33.104 190.348 30.832 190.348 27.696V20.832C190.348 18.368 191.228 16.432 192.988 15.024C194.78 13.584 197.212 12.864 200.284 12.864C203.452 12.864 205.932 13.632 207.724 15.168C209.516 16.672 210.412 18.88 210.412 21.792C210.412 23.2 210.284 24.288 210.028 25.056C209.804 25.824 209.34 26.4 208.636 26.784C207.932 27.136 206.908 27.312 205.564 27.312H196.54V27.744C196.54 30.496 197.948 31.872 200.764 31.872ZM200.284 17.568C199.1 17.568 198.172 17.92 197.5 18.624C196.86 19.296 196.54 20.192 196.54 21.312V23.04H202.012C202.844 23.04 203.42 22.912 203.74 22.656C204.06 22.4 204.22 21.952 204.22 21.312C204.22 20.096 203.884 19.168 203.212 18.528C202.54 17.888 201.564 17.568 200.284 17.568Z" fill="#141414"/>
<path d="M218.201 10.416C217.209 10.416 216.361 10.064 215.657 9.36C214.953 8.656 214.601 7.808 214.601 6.816C214.601 5.856 214.953 5.024 215.657 4.32C216.361 3.584 217.209 3.216 218.201 3.216C219.161 3.216 219.993 3.584 220.697 4.32C221.433 5.024 221.801 5.856 221.801 6.816C221.801 7.808 221.433 8.656 220.697 9.36C219.993 10.064 219.161 10.416 218.201 10.416ZM219.449 36.576C217.817 35.744 216.681 34.8 216.041 33.744C215.401 32.656 215.081 31.152 215.081 29.232V13.44H221.321V29.04C221.321 29.904 221.481 30.608 221.801 31.152C222.153 31.696 222.761 32.288 223.625 32.928L219.449 36.576Z" fill="#141414"/>
<path d="M235.59 36.576C233.798 36.576 232.342 36.4 231.222 36.048C230.102 35.728 229.206 35.28 228.534 34.704C227.862 34.128 227.158 33.344 226.422 32.352L230.31 29.04C231.142 30.064 231.91 30.784 232.614 31.2C233.35 31.584 234.342 31.776 235.59 31.776C236.966 31.776 237.958 31.616 238.566 31.296C239.206 30.944 239.526 30.4 239.526 29.664C239.526 28.96 239.126 28.416 238.326 28.032C237.558 27.648 236.038 27.264 233.766 26.88C229.286 26.016 227.046 23.584 227.046 19.584C227.046 17.536 227.862 15.904 229.494 14.688C231.126 13.472 233.302 12.864 236.022 12.864C238.294 12.864 240.086 13.2 241.398 13.872C242.742 14.512 243.83 15.456 244.662 16.704L240.822 19.968C239.99 19.136 239.238 18.544 238.566 18.192C237.894 17.84 237.046 17.664 236.022 17.664C233.974 17.664 232.95 18.384 232.95 19.824C232.95 20.496 233.286 21.008 233.958 21.36C234.662 21.712 235.542 21.984 236.598 22.176C238.582 22.624 240.15 23.088 241.302 23.568C242.486 24.016 243.462 24.736 244.23 25.728C245.03 26.72 245.43 28.08 245.43 29.808C245.43 32.112 244.614 33.824 242.982 34.944C241.35 36.032 238.886 36.576 235.59 36.576Z" fill="#141414"/>
</svg>
